<?xml version="1.0" encoding="utf-8"?>
<!-- Generator: Adobe Illustrator 15.0.2, SVG Export Plug-In . SVG Version: 6.00 Build 0)  -->
<!DOCTYPE svg PUBLIC "-//W3C//DTD SVG 1.1//EN" "http://www.w3.org/Graphics/SVG/1.1/DTD/svg11.dtd">
<svg version="1.1" id="Layer_1" xmlns="http://www.w3.org/2000/svg" xmlns:xlink="http://www.w3.org/1999/xlink" x="0px" y="0px"
	 width="215px" height="56px" viewBox="0 0 215 56" enable-background="new 0 0 215 56" xml:space="preserve">
<rect fill="#FFFFFF" width="215" height="56"/>
<path fill="#0194D3" d="M28,0C12.537,0.001,0.001,12.536,0,28c0.001,15.463,12.537,27.997,28,28c15.464-0.003,27.998-12.536,28-28
	C55.998,12.536,43.464,0.001,28,0z M43.759,43.759c-4.042,4.038-9.597,6.527-15.76,6.528c-6.164-0.001-11.717-2.492-15.759-6.528
	C8.202,39.715,5.713,34.162,5.712,28c0.001-6.163,2.49-11.717,6.528-15.76C16.283,8.202,21.837,5.713,28,5.711
	c6.164,0.001,11.718,2.49,15.76,6.528c4.039,4.043,6.527,9.597,6.528,15.76C50.286,34.162,47.797,39.715,43.759,43.759z
	 M24.385,9.854c3.346,0,6.06,2.713,6.06,6.059c0,3.347-2.714,6.06-6.06,6.06c-3.346,0-6.059-2.712-6.059-6.06
	C18.327,12.566,21.039,9.854,24.385,9.854z M42.764,28.017c0,3.349-2.711,6.059-6.061,6.059c-3.341,0-6.058-2.711-6.058-6.059
	s2.719-6.058,6.058-6.058C40.054,21.959,42.764,24.67,42.764,28.017z M24.365,34.098c3.347,0,6.059,2.715,6.059,6.061
	c0,3.347-2.712,6.06-6.059,6.06c-3.346,0-6.06-2.712-6.06-6.06C18.306,36.812,21.019,34.098,24.365,34.098z"/>
<path fill="#0194D3" d="M89.78,32.005h-9.069V47.68h-6.046V7.821h15.114c7.781,0,12.761,5.151,12.761,12.092
	S97.561,32.005,89.78,32.005z M89.443,13.252H80.71v13.267h8.732c4.199,0,7.053-2.408,7.053-6.606
	C96.496,15.714,93.642,13.252,89.443,13.252z M118.966,47.68v-4.869h-2.519c-2.297,0-3.077-1.119-3.077-3.304V7.821h-5.711v32.022
	c0,4.198,2.407,7.837,7.78,7.837H118.966L118.966,47.68z M144.061,44.654c-1.851,1.906-4.648,3.359-8.512,3.359
	c-3.861,0-6.605-1.455-8.451-3.359c-2.687-2.797-3.357-6.381-3.357-11.194c0-4.758,0.671-8.342,3.357-11.141
	c1.846-1.903,4.59-3.359,8.451-3.359c3.863,0,6.661,1.458,8.512,3.359c2.686,2.799,3.356,6.382,3.356,11.141
	C147.418,38.275,146.746,41.857,144.061,44.654z M139.748,25.68c-1.064-1.064-2.52-1.625-4.199-1.625
	c-1.677,0-3.078,0.559-4.143,1.625c-1.734,1.736-1.957,4.702-1.957,7.78s0.223,6.046,1.957,7.781
	c1.064,1.062,2.465,1.679,4.143,1.679c1.68,0,3.135-0.615,4.199-1.679c1.736-1.737,1.96-4.703,1.96-7.781
	S141.484,27.416,139.748,25.68z M170.048,47.678h5.709V29.541c0-3.191-0.672-5.878-2.854-8.004
	c-1.678-1.624-4.086-2.576-6.998-2.576c-2.854,0-5.596,1.063-7.557,3.191v-2.854h-5.596V47.68h5.708V30.382
	c0-4.368,2.688-6.327,5.878-6.327s5.708,1.903,5.708,6.327V47.68v-0.002H170.048z M186.742,35.141c0,4.868,2.574,7.947,7.221,7.947
	c3.189,0,4.872-0.895,6.887-2.911l3.639,3.415c-2.911,2.911-5.653,4.422-10.635,4.422c-7.11,0-12.764-3.75-12.764-14.554
	c0-9.182,4.758-14.5,12.035-14.5c7.613,0,12.036,5.598,12.036,13.661v2.52H186.742z M198.721,27.302
	c-0.895-2.126-2.908-3.583-5.597-3.583c-2.687,0-4.758,1.457-5.653,3.583c-0.559,1.288-0.672,2.128-0.729,3.862h12.765
	C199.449,29.43,199.283,28.589,198.721,27.302z M212.529,18.518l-0.743-1.486h-0.669v1.486h-0.535v-3.529h1.369
	c0.666,0,1.095,0.431,1.095,1.032c0,0.505-0.308,0.828-0.706,0.936l0.814,1.563h-0.625V18.518L212.529,18.518z M211.908,15.47
	h-0.791v1.104h0.791c0.359,0,0.602-0.203,0.602-0.549C212.51,15.679,212.268,15.47,211.908,15.47z M211.811,13.757
	c-1.646,0-2.979,1.336-2.979,2.984c0.002,1.648,1.333,2.984,2.979,2.984c1.65,0,2.989-1.336,2.989-2.984
	C214.8,15.093,213.461,13.757,211.811,13.757z M211.811,19.287c-1.404-0.002-2.541-1.138-2.541-2.546
	c0.002-1.406,1.135-2.544,2.541-2.547c1.408,0.002,2.547,1.14,2.551,2.547C214.357,18.149,213.219,19.285,211.811,19.287z"/>
<text transform="matrix(1 0 0 1 69.915 47.6797)" font-family="'OpenSans-Bold'" font-size="53">Plone</text>
</svg>
